# xmcd
#
# Track frame offsets: 
#        150
#        21520
#        45993
#        65027
#        90212
#        117577
#        138911
#        160344
#        185838
#        215356
#
# Disc length: 3139 seconds
#
# Revision: 0
# Processed by: cddbd v1.5.2PL0 Copyright (c) Steve Scherf et al.
# Submitted via: ExactAudioCopy v1.0b3
#
DISCID=8c0c410a
DTITLE=Tuan Vu - Tram Nam Ben Cu
DYEAR=1991
DGENRE=
TTITLE0=La thu do thi
TTITLE1=Hoa trinh nu
TTITLE2=Tram nam ben cu
TTITLE3=Mua dem ngoai o
TTITLE4=Linh nghi gi
TTITLE5=Hoa su nha nang
TTITLE6=Canh buom chuyen ben
TTITLE7=Mua Xuan la kho
TTITLE8=Tinh dau tinh cuoi
TTITLE9=La thu cuoi cung
EXTD=
EXTT0=
EXTT1=
EXTT2=
EXTT3=
EXTT4=
EXTT5=
EXTT6=
EXTT7=
EXTT8=
EXTT9=
PLAYORDER=
